<svg version="1.1" id="Layer_1" xmlns="http://www.w3.org/2000/svg" xmlns:xlink="http://www.w3.org/1999/xlink" x="0px" y="0px"
	 width="100%" viewBox="0 0 1024 1024" enable-background="new 0 0 1024 1024" xml:space="preserve">
<path fill="#000000" opacity="1.000000" stroke="none" 
	d="
M476.856567,420.902100 
	C489.792603,429.737701 501.136871,440.060181 512.981018,449.751770 
	C541.982178,473.482391 570.777527,497.464417 599.664978,521.334045 
	C605.949707,526.527039 612.273071,531.673279 618.922546,537.122986 
	C621.466431,533.007324 622.244812,528.591919 623.446106,524.408447 
	C632.125549,494.180664 640.710571,463.925446 649.202820,433.644501 
	C650.124817,430.356873 651.764465,428.978119 655.154480,428.999786 
	C668.649353,429.086121 682.145325,429.064056 695.640503,428.995178 
	C698.970398,428.978149 700.382202,430.229553 700.376343,433.723206 
	C700.300171,478.874817 700.293213,524.026672 700.368713,569.178284 
	C700.374695,572.756470 698.783630,573.879700 695.565796,573.856995 
	C689.568359,573.814575 683.565979,573.730103 677.573914,573.921509 
	C673.225098,574.060364 671.543152,572.706970 671.571106,567.924316 
	C671.774841,533.103821 671.665771,498.281525 671.655640,463.459808 
	C671.655396,462.642761 671.655640,461.825745 670.884033,460.822327 
	C668.734741,467.858765 666.473816,474.863373 664.455750,481.937256 
	C656.375061,510.263062 648.307922,538.593079 640.409485,566.969910 
	C639.339050,570.815613 637.599182,572.118774 633.532776,572.386475 
	C625.426697,572.920166 618.870728,570.961975 612.784363,565.196045 
	C605.596375,558.386475 597.854736,552.065857 588.960144,546.007019 
	C587.841248,553.849304 588.188232,560.985962 588.374756,568.061096 
	C588.498169,572.741455 587.200623,574.788879 582.237976,574.418823 
	C577.432922,574.060608 572.580261,574.352112 567.748596,574.334778 
	C560.771057,574.309692 560.748779,574.300781 560.738586,567.524536 
	C560.718384,554.028992 560.629395,540.532349 560.786865,527.038696 
	C560.827576,523.555237 559.766846,521.110901 557.066040,518.893677 
	C530.288635,496.910675 503.560730,474.867035 476.899872,452.742859 
	C474.056152,450.383026 471.574768,449.902496 468.389191,451.869324 
	C466.783752,452.860565 465.162415,454.328766 462.564850,453.732971 
	C461.250366,451.238037 461.814850,448.359161 461.847656,445.638458 
	C461.886688,442.403625 460.623718,441.168701 457.395508,441.277008 
	C452.338318,441.446594 447.271271,441.321991 441.967926,440.436401 
	C453.175568,433.092072 464.457428,426.340393 476.856567,420.902100 
z"/>
<path fill="#000000" opacity="1.000000" stroke="none" 
	d="
M497.523987,391.570740 
	C440.954346,423.008331 384.700806,454.258392 328.123230,485.688477 
	C326.003235,481.163940 327.421600,477.237396 326.702484,473.612762 
	C323.897186,459.473053 329.383148,450.483765 343.025970,446.156128 
	C344.891052,445.564484 346.535767,444.265320 348.267365,443.267426 
	C363.357269,434.571320 360.308533,439.505859 360.606415,421.974030 
	C360.793213,410.981537 360.766754,399.981049 360.572266,388.988800 
	C360.501862,385.010956 362.012665,383.676941 365.851837,383.813629 
	C372.008942,384.032837 378.180389,384.016052 384.341553,383.890564 
	C387.956909,383.816925 389.410370,385.204071 389.331818,388.901764 
	C389.158417,397.061432 389.285339,405.227478 389.289368,413.390900 
	C389.290253,415.186615 389.289520,416.982300 389.289520,419.246826 
	C394.126160,418.333618 397.403381,415.711853 400.921448,413.768311 
	C436.047241,394.363281 471.081543,374.792297 506.252106,355.469116 
	C510.436249,353.170258 512.140076,350.560822 512.159546,345.719452 
	C512.206970,333.901093 512.948975,322.084869 512.060364,310.267731 
	C511.718414,305.720459 513.376282,303.500824 518.350952,303.787537 
	C524.329285,304.132141 530.344482,304.006195 536.338074,303.855896 
	C540.018433,303.763611 541.366882,305.292908 541.305054,308.910645 
	C541.160278,317.384155 541.258850,325.861786 541.258850,334.524139 
	C545.335388,334.819855 547.574158,330.894623 551.171143,331.110992 
	C552.803711,332.445038 552.284912,334.228394 552.310547,335.795868 
	C552.386719,340.459351 551.942505,345.164124 552.410522,349.780914 
	C553.165588,357.228943 552.025696,363.217316 543.829712,365.830719 
	C540.773376,366.805267 541.270996,369.756287 541.270386,372.232971 
	C541.263489,398.222687 541.276611,424.212463 541.238159,450.202118 
	C541.235291,452.130951 541.762939,454.184814 540.522827,455.964111 
	C538.616638,456.631042 537.711182,455.106903 536.632751,454.226929 
	C529.535095,448.435577 522.526733,442.534637 515.408203,436.769440 
	C513.269409,435.037292 512.527222,433.052704 512.520325,430.301086 
	C512.485901,416.645172 512.248718,402.989685 512.063293,389.334320 
	C512.043518,387.879120 512.287415,386.341217 511.071259,384.810791 
	C506.121887,385.926514 502.372986,389.487335 497.523987,391.570740 
z"/>
<path fill="#000000" opacity="1.000000" stroke="none" 
	d="
M204.880569,659.000000 
	C204.884033,650.172485 205.006851,641.842529 204.837906,633.518555 
	C204.760406,629.699402 206.259552,628.416260 210.035278,627.995850 
	C220.986649,626.776550 229.775711,628.739441 236.766586,638.760376 
	C245.026627,650.600525 255.076736,661.181213 264.130676,672.484192 
	C267.127686,676.225708 268.932587,675.690857 271.718506,672.238831 
	C281.964691,659.542847 292.630524,647.183838 302.791565,634.421814 
	C306.468872,629.803223 310.660858,627.921692 316.452881,627.845276 
	C330.385223,627.661499 330.382416,627.478638 330.381653,641.119385 
	C330.380219,666.268555 330.383789,691.417664 330.375122,716.566833 
	C330.372864,723.133179 330.355774,723.150757 323.641235,723.190125 
	C318.811462,723.218445 313.964233,722.937683 309.156097,723.260437 
	C304.185516,723.594238 302.816376,721.399048 302.923309,716.783386 
	C303.193237,705.130676 303.108154,693.469971 303.214783,681.812988 
	C303.228577,680.307434 303.247345,678.855896 302.253082,676.687805 
	C295.956299,684.156799 289.897491,691.148987 284.055054,698.317505 
	C274.392212,710.173584 261.360199,710.300049 251.499802,698.449524 
	C246.920990,692.946594 242.445145,687.358093 237.891449,681.834167 
	C236.654099,680.333130 235.596008,678.585754 233.662857,677.853821 
	C231.611679,679.365173 232.412491,681.362793 232.400986,683.048157 
	C232.322464,694.539551 232.200394,706.035156 232.444183,717.521973 
	C232.538055,721.943970 230.947678,723.463257 226.641937,723.251221 
	C221.325119,722.989380 215.975555,722.980652 210.659348,723.246826 
	C206.300446,723.464966 204.796448,721.783203 204.828979,717.459167 
	C204.974319,698.140381 204.885178,678.819885 204.880569,659.000000 
z"/>
<path fill="#000000" opacity="1.000000" stroke="none" 
	d="
M414.000000,573.942017 
	C398.002747,573.934265 382.503082,573.769287 367.009674,574.010315 
	C361.997284,574.088257 360.486511,572.470154 360.530914,567.419312 
	C360.759583,541.426025 360.700348,515.428955 360.527252,489.434692 
	C360.500275,485.379089 361.884094,483.106018 365.423859,481.194794 
	C385.355957,470.432922 405.181305,459.472839 425.010437,448.521332 
	C426.974457,447.436646 428.934418,446.831360 431.170624,446.848083 
	C438.168976,446.900360 445.169861,446.982483 452.165710,446.845551 
	C455.753113,446.775360 457.340424,448.091675 457.226471,451.803406 
	C457.057800,457.296936 457.006287,462.809021 457.268799,468.295807 
	C457.460724,472.307129 455.830780,473.446625 452.008850,473.418793 
	C433.346497,473.282898 414.682617,473.348206 396.019257,473.367981 
	C389.341339,473.375061 389.338135,473.408020 389.328796,479.990845 
	C389.322845,484.156738 389.495758,488.331329 389.279785,492.485992 
	C389.077698,496.372833 390.537231,497.729340 394.492188,497.688049 
	C410.654083,497.519379 426.820709,497.765961 442.981476,497.551636 
	C447.480865,497.491974 449.395111,498.776489 449.114716,503.464905 
	C448.816833,508.445831 448.866882,513.468689 449.120178,518.455200 
	C449.345734,522.895264 447.416351,524.234680 443.196869,524.191711 
	C427.201263,524.028809 411.201294,524.239502 395.207245,524.011292 
	C390.678253,523.946716 388.798309,525.296082 389.214050,529.968689 
	C389.552521,533.772705 389.550781,537.645813 389.267273,541.456177 
	C388.931183,545.973083 390.876343,547.106323 395.126251,547.063354 
	C413.287750,546.879578 431.452240,546.991028 449.615662,546.999023 
	C456.762604,547.002136 457.000854,547.232666 457.020660,554.200256 
	C457.032471,558.366150 457.051514,562.532410 457.013000,566.697937 
	C456.949890,573.521362 456.593903,573.881653 449.493805,573.906067 
	C437.829315,573.946228 426.164612,573.933044 414.000000,573.942017 
z"/>
<path fill="#000000" opacity="1.000000" stroke="none" 
	d="
M688.135010,643.010559 
	C688.136108,667.829834 688.147156,692.151428 688.130981,716.473083 
	C688.126648,723.005798 687.854614,722.575317 681.398071,723.336914 
	C670.168274,724.661499 662.297241,720.897705 655.548767,711.573425 
	C646.602295,699.212280 636.209167,687.898010 626.363037,676.044006 
	C624.737183,677.633179 625.376221,679.212402 625.368774,680.599609 
	C625.302185,692.926697 625.222229,705.255249 625.363098,717.580933 
	C625.403992,721.161438 624.412659,722.665344 620.553345,722.532776 
	C614.739624,722.333130 608.905945,722.695374 603.081299,722.838928 
	C599.405823,722.929504 597.710815,721.440430 597.724243,717.490295 
	C597.820862,689.170959 597.794373,660.850952 597.716492,632.531433 
	C597.707275,629.176025 598.869019,627.860901 602.344482,627.700684 
	C619.836121,626.894531 619.858948,626.792908 631.000671,640.222656 
	C639.506165,650.474854 647.927612,660.796753 656.403931,671.073303 
	C657.444336,672.334717 658.592102,673.507507 660.739929,675.882019 
	C660.739929,671.157837 660.738892,667.762268 660.740112,664.366699 
	C660.743713,654.038330 660.891907,643.707031 660.682251,633.382996 
	C660.597778,629.221802 662.136719,627.705688 666.217285,627.862671 
	C671.706421,628.073730 677.215393,628.060608 682.705383,627.858948 
	C686.869568,627.705994 688.428467,629.494324 688.170837,633.519592 
	C687.979736,636.505920 688.134338,639.514343 688.135010,643.010559 
z"/>
<path fill="#000000" opacity="1.000000" stroke="none" 
	d="
M427.002014,627.631226 
	C438.981964,627.897461 450.478424,627.437378 461.933624,628.744873 
	C481.675385,630.998291 492.600372,641.191956 494.986603,660.732483 
	C496.464203,672.832153 491.059906,682.333923 481.901215,689.945312 
	C480.525452,691.088684 478.705902,691.800415 477.745453,694.011047 
	C483.807648,703.030701 489.988647,712.227112 495.998199,721.168457 
	C495.019043,723.539490 493.339630,723.163025 491.928314,723.174011 
	C485.600006,723.223145 479.270844,723.156006 472.942352,723.194458 
	C469.121552,723.217651 466.254883,721.675903 464.144897,718.471191 
	C460.942535,713.607483 457.601379,708.835327 454.360626,703.996521 
	C452.564575,701.314819 450.614929,698.920044 447.188232,698.241760 
	C439.423035,696.704651 437.273773,698.399414 437.257843,706.171021 
	C437.249298,710.334473 437.196808,714.498047 437.212158,718.661316 
	C437.221161,721.101257 436.160126,722.358643 433.633942,722.391052 
	C426.979126,722.476318 420.325348,722.639221 413.670654,722.739563 
	C410.337036,722.789795 408.996704,721.118713 409.003448,717.777039 
	C409.060028,689.630859 409.054565,661.484375 408.995239,633.338196 
	C408.987091,629.460510 410.239502,627.435547 414.516510,627.696777 
	C418.495544,627.939819 422.505737,627.673523 427.002014,627.631226 
M440.050415,650.348450 
	C437.909637,650.555481 437.356262,651.988525 437.355255,653.843689 
	C437.351837,660.001343 437.390961,666.159424 437.328583,672.316467 
	C437.302338,674.907043 438.608124,675.921570 441.011780,675.887085 
	C446.002167,675.815491 451.010162,675.967346 455.978241,675.593323 
	C462.160065,675.127869 466.476532,670.097595 466.597931,663.786987 
	C466.734772,656.673828 463.126373,652.117126 456.331970,651.350342 
	C451.216156,650.773010 446.051086,650.631775 440.050415,650.348450 
z"/>
<path fill="#000000" opacity="1.000000" stroke="none" 
	d="
M703.420654,660.662903 
	C709.286072,640.236633 722.999207,628.847717 743.012939,625.197815 
	C762.075562,621.721436 779.567932,625.492065 793.588440,639.774353 
	C807.087585,653.525574 810.403198,670.152771 804.940247,688.244629 
	C799.645447,705.779297 787.173218,716.641907 769.686462,721.084229 
	C748.848328,726.378052 729.956360,722.341736 714.615173,706.487061 
	C702.169006,693.624329 699.586304,678.068115 703.420654,660.662903 
M731.200989,682.076721 
	C734.403687,695.149353 747.707214,701.014771 757.954346,699.134460 
	C773.902344,696.208008 782.296570,681.952942 777.820190,665.716675 
	C773.842712,651.289978 759.865417,644.059387 745.812256,649.158569 
	C733.563477,653.603027 727.758667,666.203857 731.200989,682.076721 
z"/>
<path fill="#000000" opacity="1.000000" stroke="none" 
	d="
M144.000000,664.942810 
	C155.817337,664.940979 167.135773,665.029053 178.451370,664.887451 
	C182.200806,664.840576 184.079376,666.094727 183.926514,670.030151 
	C183.784531,673.686401 183.814484,677.352051 183.865860,681.012268 
	C183.919174,684.809265 182.178589,686.264893 178.359512,686.201233 
	C168.043549,686.029175 157.720306,686.263245 147.405762,686.052185 
	C143.421753,685.970764 142.223724,687.410095 142.346512,691.304871 
	C142.655548,701.109375 142.504410,701.115845 152.354919,701.127075 
	C163.668793,701.140015 174.982910,701.193604 186.296402,701.132996 
	C189.563553,701.115479 191.308121,702.263367 191.199844,705.773499 
	C191.076752,709.764221 190.974579,713.771851 191.202682,717.752686 
	C191.441162,721.914612 189.683716,723.294861 185.635422,723.263000 
	C168.161179,723.125488 150.685287,723.196899 133.210007,723.191223 
	C128.716431,723.189758 124.220665,723.097168 119.729958,723.209167 
	C116.296463,723.294800 114.959206,721.695618 114.968597,718.382446 
	C115.014366,702.238831 115.025871,686.094788 114.958076,669.951355 
	C114.943039,666.369629 116.399094,664.855225 120.033913,664.915955 
	C127.853905,665.046753 135.677734,664.947937 144.000000,664.942810 
z"/>
<path fill="#000000" opacity="1.000000" stroke="none" 
	d="
M547.431519,701.571655 
	C558.379883,701.517761 568.874207,701.546326 579.364441,701.353882 
	C582.846436,701.290039 584.211487,702.716431 584.141296,706.068970 
	C584.054260,710.231750 584.026062,714.401184 584.159668,718.561646 
	C584.271484,722.042175 582.668030,723.225952 579.327454,723.215271 
	C557.337708,723.144592 535.347473,723.148865 513.357605,723.208496 
	C510.006348,723.217590 508.601288,721.964478 508.584625,718.496155 
	C508.508667,702.675049 508.328949,686.853516 508.025879,671.035156 
	C507.941650,666.638000 509.444244,664.807068 514.093201,664.853088 
	C533.249329,665.042786 552.409302,665.039978 571.565674,664.869812 
	C575.990356,664.830566 577.577026,666.459167 577.262512,670.736206 
	C577.018799,674.050659 577.013916,677.408936 577.238220,680.724976 
	C577.523804,684.946716 575.624817,686.241089 571.621826,686.174011 
	C561.629333,686.006592 551.627441,686.308105 541.638550,686.056091 
	C537.228577,685.944885 535.827942,687.523193 535.875244,691.839539 
	C535.977112,701.138977 535.792603,701.140991 547.431519,701.571655 
z"/>
<path fill="#000000" opacity="1.000000" stroke="none" 
	d="
M883.859009,696.763062 
	C880.800964,703.838501 877.843811,710.545471 875.039001,717.315552 
	C873.292419,721.531189 870.425842,723.497192 865.753662,723.266235 
	C860.600891,723.011475 855.425293,723.127808 850.261719,723.211670 
	C846.686279,723.269775 845.309692,722.269287 846.920593,718.484009 
	C859.116882,689.825439 871.217468,661.126160 883.328674,632.431396 
	C884.227539,630.301941 885.611755,628.419922 887.871460,628.178467 
	C895.761658,627.335571 903.664185,627.625610 912.692810,628.146973 
	C903.854736,651.855774 893.070312,673.785645 883.859009,696.763062 
z"/>
<path fill="#000000" opacity="1.000000" stroke="none" 
	d="
M807.478455,633.373352 
	C805.079895,629.132812 806.333191,627.618164 810.661621,627.739502 
	C816.809631,627.911804 822.964417,627.896606 829.115967,627.872437 
	C833.095947,627.856812 835.590027,629.652954 837.121338,633.345459 
	C842.405457,646.087158 847.819519,658.775024 853.210327,671.472290 
	C854.495972,674.500549 854.983032,677.597961 853.704346,680.680237 
	C849.884644,689.887695 845.961731,699.052429 842.042175,708.218140 
	C841.876343,708.606018 841.341187,708.836060 840.043884,709.920959 
	C829.125000,684.249268 818.381165,658.989319 807.478455,633.373352 
z"/>
<path fill="#000000" opacity="1.000000" stroke="none" 
	d="
M559.864929,468.769958 
	C559.865479,457.163605 559.980896,446.024353 559.807922,434.889557 
	C559.742615,430.686981 561.126526,428.786865 565.541443,428.946136 
	C571.849915,429.173706 578.172729,429.004456 584.489441,428.998901 
	C587.094910,428.996582 589.148010,429.653595 589.142273,432.821136 
	C589.104187,453.929779 589.068420,475.038422 589.006470,496.147003 
	C589.005127,496.603333 588.699829,497.058746 588.515320,497.573090 
	C585.816528,498.338623 584.639648,496.083160 583.119080,494.789917 
	C576.791504,489.408264 570.722717,483.709045 564.226257,478.544891 
	C561.018921,475.995300 559.337219,473.275177 559.864929,468.769958 
z"/>
<path fill="#000000" opacity="1.000000" stroke="none" 
	d="
M543.000000,650.208618 
	C533.022156,650.210022 523.538757,650.019836 514.068848,650.293823 
	C509.415558,650.428467 507.763031,648.592163 508.026733,644.165100 
	C508.234009,640.685120 508.088745,637.184937 508.127655,633.694031 
	C508.163086,630.514526 509.524597,628.850098 512.977173,628.861206 
	C534.426697,628.930176 555.876709,628.929565 577.326233,628.864441 
	C580.689819,628.854248 582.236511,630.177856 582.156372,633.575745 
	C582.066284,637.397888 581.981873,641.232788 582.192078,645.045776 
	C582.407898,648.963501 580.770203,650.320618 576.921082,650.265625 
	C565.782715,650.106506 554.640625,650.208679 543.000000,650.208618 
z"/>
<path fill="#000000" opacity="1.000000" stroke="none" 
	d="
M154.000000,628.912598 
	C163.974670,628.905457 173.453262,629.056580 182.922302,628.822144 
	C187.362686,628.712219 189.235168,630.144104 189.136932,634.790588 
	C188.742889,653.426514 191.295914,649.950500 173.983765,650.152466 
	C156.532761,650.356140 139.077560,650.211975 121.624199,650.199585 
	C115.342491,650.195068 114.912666,649.872070 114.976517,643.865173 
	C115.161362,626.477173 112.619690,629.157349 129.564148,628.935852 
	C137.541504,628.831543 145.521301,628.914734 154.000000,628.912598 
z"/>
<path fill="#000000" opacity="1.000000" stroke="none" 
	d="
M390.864075,667.586792 
	C394.747711,669.174072 393.228302,672.285889 393.227692,674.660645 
	C393.224304,687.451111 395.122437,686.070984 381.928436,686.138489 
	C371.942749,686.189636 361.955383,686.043518 351.971039,686.167297 
	C348.230957,686.213562 346.673492,685.002930 346.618988,680.996460 
	C346.436920,667.623108 346.299652,667.640991 359.488556,667.631348 
	C369.807220,667.623840 380.125854,667.570312 390.864075,667.586792 
z"/>
<path fill="#000000" opacity="1.000000" stroke="none" 
	d="
M376.011414,776.953491 
	C377.227631,774.381714 378.891693,774.741882 380.654327,775.767273 
	C381.936646,776.513306 383.188324,777.480957 384.929779,775.776367 
	C381.624573,772.915955 373.262756,773.605774 376.896027,765.862366 
	C378.766968,761.874939 384.078308,762.026550 390.101044,765.603821 
	C395.925598,757.677429 395.925598,757.677429 402.031921,765.459351 
	C398.890381,769.372192 397.705841,773.534790 400.941620,778.305359 
	C402.101013,780.014587 400.686035,781.530029 398.554779,781.457581 
	C394.880402,781.332764 393.371796,778.985474 392.941376,775.632019 
	C392.651672,773.374573 393.506439,770.959106 391.880737,768.569702 
	C388.785858,769.438354 385.595245,769.626648 382.383850,766.674622 
	C382.546326,769.392883 383.879089,769.419006 384.819977,769.657227 
	C387.719025,770.390991 390.272888,771.591125 390.954254,774.781555 
	C391.459015,777.144958 390.243988,779.042053 388.285431,780.269531 
	C385.241516,782.177124 382.000000,782.287415 378.773987,780.694824 
	C377.386780,780.010010 376.396240,778.892090 376.011414,776.953491 
z"/>
<path fill="#000000" opacity="1.000000" stroke="none" 
	d="
M531.300537,757.609070 
	C538.225525,761.046692 534.363098,765.564331 532.564087,769.865417 
	C536.923706,771.222107 537.722656,763.225403 542.518921,766.826843 
	C542.222412,769.686218 539.390625,771.115845 538.658691,773.604675 
	C537.711060,776.827209 542.230957,777.305542 542.212708,780.421570 
	C536.426575,780.689819 530.620361,781.624878 524.981140,781.015320 
	C520.242859,780.503174 518.640808,775.029175 521.298889,770.851257 
	C522.247559,769.360291 523.403381,768.356812 522.745850,766.043823 
	C521.075623,760.168152 524.351135,756.958496 531.300537,757.609070 
M530.048462,774.277832 
	C528.960999,773.351318 528.424927,770.935242 526.318848,772.668152 
	C525.345154,773.469238 525.198792,774.808167 526.233276,775.691284 
	C527.819702,777.045776 529.411682,777.385620 530.048462,774.277832 
z"/>
<path fill="#000000" opacity="1.000000" stroke="none" 
	d="
M724.384888,774.026428 
	C724.352051,775.485168 724.315186,776.482117 724.282654,777.479248 
	C724.224426,779.262329 723.899719,780.959106 721.652588,780.951416 
	C719.141602,780.942688 718.857971,779.062622 718.819458,777.113342 
	C718.776794,774.953064 718.786804,772.790588 718.687500,770.633118 
	C718.639099,769.582520 718.199829,768.621765 716.966797,768.587524 
	C715.722717,768.553101 715.247131,769.516663 715.149292,770.549377 
	C714.914429,773.029236 714.819458,775.522095 714.609192,778.004700 
	C714.477661,779.558105 714.165100,781.063965 712.125854,781.096375 
	C709.898743,781.131714 709.297424,779.572571 709.235718,777.800964 
	C709.160889,775.650391 709.401062,773.490295 709.367249,771.336426 
	C709.345581,769.950134 708.910339,768.520569 707.249207,768.445557 
	C705.434326,768.363647 705.247192,769.883362 705.185364,771.247803 
	C705.079956,773.572388 705.106262,775.903809 704.970093,778.226013 
	C704.870178,779.928833 704.014954,781.037170 702.145813,781.019104 
	C700.375916,781.002014 699.187927,780.066345 699.139038,778.350342 
	C699.020874,774.203125 699.063354,770.048645 699.154053,765.899597 
	C699.187317,764.377380 700.216614,763.152222 701.709412,763.474304 
	C705.259460,764.240112 708.951843,761.630615 712.411499,764.048889 
	C712.839539,764.348083 713.684875,764.161987 714.310059,764.050415 
	C722.167480,762.648438 723.982056,764.087830 724.354370,772.068359 
	C724.377563,772.566528 724.373901,773.065918 724.384888,774.026428 
z"/>
<path fill="#000000" opacity="1.000000" stroke="none" 
	d="
M597.764404,779.876221 
	C596.630981,776.766724 597.239136,773.905334 596.966553,771.106140 
	C596.852539,769.935181 596.675110,768.629944 595.150757,768.567749 
	C593.591736,768.504150 593.316895,769.765015 593.249084,770.970642 
	C593.156006,772.628540 593.225525,774.295898 593.119934,775.952576 
	C592.989197,778.005310 593.655334,780.825684 590.495728,780.944824 
	C587.235779,781.067688 587.815369,778.248718 587.703125,776.178223 
	C587.604248,774.354797 587.668640,772.520142 587.514954,770.702820 
	C587.408447,769.443726 586.693604,768.434326 585.319092,768.428711 
	C583.891052,768.422913 583.309875,769.481750 583.254578,770.761780 
	C583.154419,773.084961 583.164978,775.412598 583.089111,777.737061 
	C583.029419,779.563477 582.502014,781.100830 580.277405,781.041565 
	C578.020081,780.981506 577.693359,779.349548 577.672729,777.559814 
	C577.651733,775.731628 577.632385,773.903076 577.644348,772.074890 
	C577.702209,763.278259 580.255981,761.240967 588.868286,763.401611 
	C590.705627,763.862549 592.272522,764.022766 594.146667,763.462646 
	C598.788208,762.075562 601.212708,763.734619 602.536072,768.498291 
	C603.511719,772.010254 602.862366,775.453979 602.352539,778.880432 
	C601.893982,781.962646 599.954834,781.451599 597.764404,779.876221 
z"/>
<path fill="#000000" opacity="1.000000" stroke="none" 
	d="
M115.579597,775.718262 
	C115.576271,770.656311 115.677139,765.991455 115.544823,761.333313 
	C115.460449,758.362976 116.717400,757.074402 119.631363,757.019104 
	C122.478035,756.965088 125.293411,757.084045 128.054214,757.800781 
	C131.600204,758.721436 134.146851,761.324280 133.084869,764.645081 
	C131.715759,768.926086 133.262222,772.736328 133.257965,776.749023 
	C133.256119,778.487061 133.780319,780.713379 131.062347,780.988770 
	C128.311981,781.267517 127.707001,779.417297 127.701874,777.169495 
	C127.696320,774.738464 127.677658,772.290527 124.329430,772.165588 
	C120.620346,772.027039 121.276741,774.878845 121.080521,777.088379 
	C120.913429,778.970032 120.826958,781.064636 118.288315,780.991394 
	C114.937469,780.894714 115.806213,778.132080 115.579597,775.718262 
M124.293785,762.341797 
	C122.650169,762.286316 121.277214,762.613159 121.363457,764.678772 
	C121.433632,766.359680 122.588966,766.866333 124.040901,766.894043 
	C125.354912,766.919189 126.889404,767.014954 127.356995,765.457886 
	C127.917900,763.590088 126.577469,762.838562 124.293785,762.341797 
z"/>
<path fill="#000000" opacity="1.000000" stroke="none" 
	d="
M669.582642,780.834839 
	C663.106384,780.970337 659.315796,777.280151 659.783508,771.656555 
	C660.285278,765.621765 664.250366,762.448242 670.175354,763.338989 
	C677.216187,764.397522 677.209595,764.397461 677.233643,771.945190 
	C677.243652,775.091797 676.878479,778.190186 676.542480,781.319946 
	C675.827881,787.977051 668.145996,789.651062 663.434509,786.820679 
	C662.003357,785.960999 660.330566,784.749329 661.197632,782.909058 
	C662.102112,780.989075 663.998657,781.612427 665.506104,782.434082 
	C667.166626,783.339111 668.799805,784.311218 670.474487,782.655151 
	C671.253113,781.885132 671.664429,780.908875 669.582642,780.834839 
M671.667969,771.538025 
	C671.626587,769.324890 670.598633,767.981995 668.289612,768.251221 
	C666.000244,768.518005 665.432312,770.306641 665.443665,772.273010 
	C665.453003,773.877930 666.063721,775.346436 667.788818,775.680237 
	C670.374146,776.180603 671.397766,774.608887 671.667969,771.538025 
z"/>
<path fill="#000000" opacity="1.000000" stroke="none" 
	d="
M568.094849,761.002563 
	C570.301819,767.606689 573.301147,773.546936 574.685730,780.209167 
	C571.753906,781.900391 570.088745,781.091553 568.511536,778.471802 
	C565.812500,773.988770 561.399597,774.146667 558.784180,778.748901 
	C557.738586,780.588806 556.529297,781.795227 554.473999,780.839417 
	C552.281738,779.819824 553.475891,777.949524 553.955200,776.501221 
	C555.671753,771.314575 557.561890,766.185608 559.301636,761.006409 
	C559.974731,759.002747 560.780151,757.333069 563.226440,757.158691 
	C565.836365,756.972595 567.200134,758.364258 568.094849,761.002563 
z"/>
<path fill="#000000" opacity="1.000000" stroke="none" 
	d="
M330.967346,780.158691 
	C322.878967,783.063293 316.996277,780.645508 314.932465,773.882263 
	C312.609528,766.270020 316.374451,758.848083 323.355865,757.276733 
	C328.863861,756.037048 333.644440,759.085388 334.712860,764.542297 
	C331.942047,766.443970 330.222046,764.323669 328.137207,763.002319 
	C325.755768,761.493103 323.069427,761.610718 321.555511,764.161743 
	C319.465179,767.684143 319.363342,771.546509 321.965118,774.937866 
	C323.810852,777.343689 326.309387,777.230530 328.580536,775.437866 
	C330.398193,774.002991 332.542694,771.445129 334.368958,774.046875 
	C336.108704,776.525391 333.165710,778.377197 330.967346,780.158691 
z"/>
<path fill="#000000" opacity="1.000000" stroke="none" 
	d="
M656.529663,780.699097 
	C654.185486,781.101135 652.197693,781.170471 650.247681,781.478394 
	C646.155701,782.124695 643.261292,780.586609 642.335571,776.589355 
	C641.335205,772.269897 644.538452,770.851562 647.901306,769.822205 
	C648.958923,769.498474 650.278748,770.034424 651.255737,768.636169 
	C649.900818,766.903931 648.795898,768.405334 647.621155,768.883057 
	C646.228394,769.449402 644.513855,770.077942 643.606934,768.482483 
	C642.578857,766.673889 644.028381,765.390442 645.403564,764.387024 
	C650.558044,760.625977 657.538818,763.522705 657.962463,769.808105 
	C658.201294,773.351135 658.954773,777.096069 656.529663,780.699097 
z"/>
<path fill="#000000" opacity="1.000000" stroke="none" 
	d="
M214.218994,768.452271 
	C212.584229,769.386414 211.208893,769.807983 209.570862,768.706848 
	C209.390274,764.297546 212.500183,763.195496 215.914246,762.889465 
	C219.742355,762.546326 222.854156,763.976257 223.940140,768.035400 
	C224.318298,769.448853 224.208176,771.006165 224.231628,772.499084 
	C224.369034,781.243835 222.627411,782.841003 213.890335,781.695251 
	C210.755325,781.284241 208.697998,779.291870 208.289276,776.158020 
	C207.919876,773.325500 209.544022,771.364807 212.146606,770.449097 
	C213.961884,769.810486 215.910538,769.551025 218.129059,769.047485 
	C217.038223,766.765137 215.761292,767.526367 214.218994,768.452271 
z"/>
<path fill="#000000" opacity="1.000000" stroke="none" 
	d="
M617.567261,764.090332 
	C618.795532,765.481079 619.906677,766.546814 620.575745,767.841064 
	C622.628296,771.811340 621.495911,773.662598 617.040222,773.961060 
	C615.138428,774.088379 613.136841,773.601562 611.002747,774.607056 
	C612.278442,777.152344 613.780823,776.912842 615.554626,775.892151 
	C617.148254,774.975220 619.150391,773.810791 620.193420,776.134521 
	C621.067810,778.082642 619.315796,779.528687 617.704956,780.467773 
	C614.369141,782.412598 611.072083,782.365662 608.011292,779.817505 
	C604.664551,777.031250 603.741150,771.833557 605.861450,767.501343 
	C607.718567,763.706909 610.938477,762.469055 614.942688,762.980652 
	C615.736023,763.081970 616.480835,763.563599 617.567261,764.090332 
z"/>
<path fill="#000000" opacity="1.000000" stroke="none" 
	d="
M141.652069,774.637451 
	C142.912476,778.126282 144.887817,776.531433 146.794907,775.582886 
	C148.210861,774.878540 149.777039,774.392273 150.719070,776.068726 
	C151.533142,777.517334 150.246292,778.564392 149.293213,779.435669 
	C146.208710,782.255188 142.784210,782.604004 139.253540,780.372131 
	C135.696777,778.123718 134.237503,773.146179 135.810745,768.852966 
	C137.289352,764.817993 140.131393,762.529846 144.542847,762.933411 
	C148.779953,763.321106 150.842346,766.325684 151.941162,770.039673 
	C152.613419,772.311951 151.336365,773.487854 149.130157,773.711365 
	C146.680954,773.959534 144.225082,774.141968 141.652069,774.637451 
z"/>
<path fill="#000000" opacity="1.000000" stroke="none" 
	d="
M738.092407,763.513367 
	C739.513794,764.701904 740.790710,765.588013 741.579712,766.793579 
	C742.665771,768.452881 743.609863,770.458374 742.535583,772.401550 
	C741.481018,774.308899 739.371155,773.834290 737.579590,773.793213 
	C735.970337,773.756348 734.260498,773.054626 732.740723,774.887085 
	C735.185608,779.880920 739.319763,772.257141 741.754028,776.012085 
	C740.430054,780.606323 737.028503,782.626709 732.559265,781.432922 
	C728.171448,780.260986 725.127075,775.015564 726.191467,770.461060 
	C727.539185,764.693665 731.426636,762.299072 738.092407,763.513367 
z"/>
<path fill="#000000" opacity="1.000000" stroke="none" 
	d="
M830.420593,763.034241 
	C833.063599,762.606995 835.179565,763.022461 836.927490,764.473267 
	C839.072510,766.253601 840.610962,768.605957 840.067200,771.430908 
	C839.455078,774.610535 836.437317,773.602295 834.302124,774.005493 
	C832.908142,774.268738 831.289978,773.531067 829.917603,775.188599 
	C831.307800,777.575195 832.996399,776.751465 834.765503,775.732239 
	C836.285645,774.856323 838.124268,774.149231 839.054443,776.145691 
	C839.907898,777.977661 838.224548,779.169678 836.860718,780.134705 
	C833.078125,782.811035 828.543457,782.201355 825.713379,778.691345 
	C822.600830,774.830872 822.947266,768.181580 826.560059,765.002014 
	C827.523804,764.153748 828.862183,763.731201 830.420593,763.034241 
z"/>
<path fill="#000000" opacity="1.000000" stroke="none" 
	d="
M682.806519,764.710144 
	C688.926636,761.732910 693.505310,763.055115 695.537292,768.050476 
	C697.121887,771.946289 696.169373,773.401978 691.797485,773.921814 
	C689.902344,774.147156 687.854126,773.614685 685.717163,774.845764 
	C687.328125,777.547913 689.016602,776.779541 690.780579,775.711365 
	C692.162537,774.874634 693.752991,774.398315 694.739929,775.996399 
	C695.742310,777.619324 694.364990,778.894470 693.226868,779.780640 
	C690.183105,782.150330 686.878479,782.612183 683.512878,780.395691 
	C680.071533,778.129211 678.583496,773.095032 680.187256,768.761230 
	C680.692688,767.395447 681.705444,766.217407 682.806519,764.710144 
z"/>
<path fill="#000000" opacity="1.000000" stroke="none" 
	d="
M865.977417,778.819214 
	C863.189514,774.895691 862.962097,771.062317 864.976440,767.199341 
	C867.277405,762.786743 873.203918,761.401611 876.993958,764.432190 
	C879.306030,766.280945 880.876221,768.909851 880.098267,771.881042 
	C879.373352,774.649658 876.444763,773.383667 874.498535,773.877136 
	C873.101074,774.231506 871.489990,773.582642 869.805420,775.103943 
	C871.412476,777.443420 873.124878,776.808472 875.069702,775.630615 
	C876.401184,774.824280 878.077332,774.324219 879.044800,775.960266 
	C880.006104,777.585754 878.678101,778.845825 877.476624,779.723999 
	C873.607483,782.551941 869.802429,782.609314 865.977417,778.819214 
z"/>
<path fill="#000000" opacity="1.000000" stroke="none" 
	d="
M417.053375,764.750732 
	C420.326294,762.271851 421.805176,763.498535 422.100739,766.861572 
	C422.231201,768.346130 422.033295,769.863770 422.211578,771.338928 
	C422.446503,773.282776 421.399780,776.393127 424.669464,776.301453 
	C427.412476,776.224548 426.729462,773.402222 426.844421,771.517517 
	C426.945374,769.862549 426.878021,768.197876 426.916718,766.538269 
	C426.955139,764.890747 427.476624,763.553467 429.382141,763.404785 
	C431.348724,763.251343 432.750641,764.194031 432.814026,766.155212 
	C432.947754,770.292603 432.848145,774.439331 432.755280,778.580261 
	C432.741821,779.179443 432.354095,780.177551 431.940308,780.296143 
	C428.498962,781.282837 424.898193,782.059326 421.394653,781.464966 
	C418.231812,780.928345 416.938629,778.100342 416.792023,775.096497 
	C416.630646,771.789856 416.851807,768.464539 417.053375,764.750732 
z"/>
<path fill="#000000" opacity="1.000000" stroke="none" 
	d="
M186.517578,764.270630 
	C188.780533,766.053589 189.624741,768.229370 190.055695,770.547729 
	C191.101654,776.174622 187.420395,781.256958 182.066269,781.712769 
	C177.132263,782.132812 172.386276,777.575012 172.341370,772.373413 
	C172.294708,766.968872 177.008209,762.462585 182.379623,762.924927 
	C183.671936,763.036072 184.920242,763.658630 186.517578,764.270630 
M184.103256,769.687378 
	C182.956985,768.052429 181.565765,766.789001 179.649567,768.424072 
	C177.776901,770.021973 177.915604,772.265686 178.594635,774.378601 
	C179.091034,775.923279 180.295837,776.941467 182.011490,776.506714 
	C184.111755,775.974426 184.689606,774.258484 184.653015,772.290527 
	C184.640869,771.637817 184.496185,770.987427 184.103256,769.687378 
z"/>
<path fill="#000000" opacity="1.000000" stroke="none" 
	d="
M337.366455,774.384155 
	C336.807953,768.984558 338.476196,765.148560 343.497925,763.415527 
	C347.203094,762.136902 350.481567,763.092163 352.790497,766.246277 
	C355.494873,769.940552 355.731720,773.881958 353.196960,777.868225 
	C351.408691,780.680542 348.709045,781.979248 345.589111,781.736877 
	C341.362518,781.408447 338.623047,778.895874 337.366455,774.384155 
M346.276550,776.667297 
	C350.149017,775.079468 350.274933,772.245483 348.522552,769.109741 
	C347.627075,767.507446 345.690002,766.766907 344.406982,768.364990 
	C342.236725,771.068115 342.018677,774.015625 345.086975,776.475708 
	C345.206451,776.571472 345.394562,776.581604 346.276550,776.667297 
z"/>
<path fill="#000000" opacity="1.000000" stroke="none" 
	d="
M160.094849,770.536011 
	C159.799362,773.405762 159.582870,775.882019 159.371185,778.358643 
	C159.245560,779.828491 158.694946,780.920715 157.020172,781.005432 
	C155.459900,781.084412 154.365738,780.336609 154.196335,778.824097 
	C153.696960,774.365906 153.784454,769.892273 154.267319,765.433472 
	C154.316284,764.981384 154.610764,764.473083 154.944427,764.148010 
	C157.442184,761.715332 167.774918,763.244629 169.180573,766.403870 
	C171.000107,770.493225 170.181824,774.876465 169.963379,779.147461 
	C169.896332,780.458435 168.765182,781.089844 167.449753,781.015137 
	C165.910492,780.927856 164.982178,780.062012 164.905212,778.508728 
	C164.782333,776.027832 165.089233,773.473022 164.597168,771.076172 
	C163.982147,768.080505 162.406357,766.865051 160.094849,770.536011 
z"/>
<path fill="#000000" opacity="1.000000" stroke="none" 
	d="
M256.588135,763.020569 
	C261.124725,764.213074 263.492615,766.986145 264.082367,771.149841 
	C264.781189,776.083191 261.587830,780.582825 256.917633,781.556946 
	C252.489334,782.480591 248.037903,779.562195 246.737137,774.882568 
	C245.370712,769.966797 248.024124,764.813843 252.777878,763.346008 
	C253.857513,763.012512 255.056137,763.064514 256.588135,763.020569 
M255.393982,767.675171 
	C251.165741,769.018188 251.589905,772.156555 252.890594,775.147461 
	C253.773468,777.177551 255.970413,777.359802 257.341125,775.700134 
	C259.507141,773.077698 259.379333,770.314636 256.501801,768.051575 
	C256.375977,767.952698 256.211700,767.902649 255.393982,767.675171 
z"/>
<path fill="#000000" opacity="1.000000" stroke="none" 
	d="
M485.550232,780.764587 
	C478.651245,782.732544 473.351837,779.647522 472.879120,773.481567 
	C472.555328,769.258362 473.841492,765.466003 478.097198,763.648376 
	C481.781616,762.074768 485.423096,762.516663 488.060211,765.738159 
	C490.973999,769.297607 491.111694,773.393066 488.958282,777.397461 
	C488.286133,778.647339 486.931885,779.530518 485.550232,780.764587 
M478.433228,771.070374 
	C478.684998,775.707886 480.523712,777.731201 483.034668,776.101868 
	C484.794830,774.959656 484.863770,773.132996 484.701996,771.284302 
	C484.562592,769.691345 483.864136,768.380676 482.266632,767.949463 
	C480.248779,767.404846 479.309906,768.794312 478.433228,771.070374 
z"/>
<path fill="#000000" opacity="1.000000" stroke="none" 
	d="
M270.698486,780.637817 
	C261.879425,779.634216 267.283661,773.109131 266.213135,769.141235 
	C265.476501,766.410950 265.786774,762.836670 270.629303,763.534119 
	C271.877472,763.713867 273.223694,763.241943 274.521118,763.044861 
	C278.224670,762.482300 280.805786,764.127319 281.790558,767.540100 
	C282.853882,771.224854 282.322021,775.107971 282.100250,778.905090 
	C282.023804,780.214417 281.147430,780.978882 279.785492,781.027527 
	C278.217621,781.083496 277.171448,780.301758 277.049408,778.770081 
	C276.852386,776.297302 276.888733,773.806763 276.784271,771.325500 
	C276.725922,769.939636 276.441040,768.581726 274.754425,768.371399 
	C272.777069,768.124878 272.327301,769.518921 271.933167,771.093140 
	C271.164886,774.162048 272.243988,777.405579 270.698486,780.637817 
z"/>
<path fill="#000000" opacity="1.000000" stroke="none" 
	d="
M883.020264,777.579224 
	C881.750122,773.609802 882.341919,769.974854 882.615662,766.343567 
	C882.721191,764.943420 882.897644,763.635254 884.687744,763.511658 
	C886.496521,763.386780 887.585815,764.336731 887.755371,766.047119 
	C888.000122,768.516357 887.982849,771.010498 888.153687,773.488708 
	C888.247498,774.850525 888.552856,776.325378 890.245972,776.394958 
	C892.255310,776.477539 892.592896,774.894287 892.641724,773.318054 
	C892.708374,771.163574 892.690979,769.006470 892.705994,766.850464 
	C892.718323,765.080688 892.919617,763.413940 895.250488,763.401855 
	C897.652405,763.389404 898.318726,764.896851 898.289612,767.004883 
	C898.259888,769.160522 898.538574,771.351685 898.238586,773.464294 
	C897.875366,776.022217 899.979309,779.507202 896.378540,780.962341 
	C891.307251,783.011719 885.959961,781.584106 883.020264,777.579224 
z"/>
<path fill="#000000" opacity="1.000000" stroke="none" 
	d="
M360.037262,781.024658 
	C357.462494,780.823364 356.965912,779.337402 356.929596,777.523621 
	C356.896332,775.863403 356.865173,774.202393 356.881348,772.542175 
	C356.975861,762.832886 357.169250,762.641052 366.784210,762.853516 
	C369.835999,762.920959 371.799255,764.556641 372.609528,767.397766 
	C373.674896,771.133484 373.248840,774.978577 373.014923,778.780823 
	C372.919556,780.330811 371.877258,781.123840 370.296814,781.038269 
	C368.694214,780.951599 367.902863,779.982849 367.831329,778.462463 
	C367.722137,776.141174 367.723846,773.814941 367.635529,771.492432 
	C367.574310,769.882507 367.134583,768.412354 365.186707,768.378113 
	C363.276215,768.344482 362.654144,769.825562 362.498077,771.374207 
	C362.315582,773.185120 362.438324,775.024597 362.357300,776.848511 
	C362.285614,778.462891 362.585999,780.287964 360.037262,781.024658 
z"/>
<path fill="#000000" opacity="1.000000" stroke="none" 
	d="
M745.852356,774.855591 
	C745.861206,773.722351 745.872864,773.057251 745.877441,772.392090 
	C745.943481,762.863342 745.943604,762.812744 755.470703,762.867004 
	C758.398010,762.883667 760.588928,764.366211 761.475830,767.245483 
	C762.625977,770.979736 762.161255,774.826477 761.890686,778.629578 
	C761.786438,780.095764 760.916870,781.117249 759.266235,781.013977 
	C757.677979,780.914673 756.879272,779.952576 756.819763,778.414062 
	C756.729980,776.088745 756.752136,773.758606 756.633972,771.435181 
	C756.552307,769.829590 756.021729,768.370056 754.074585,768.407837 
	C752.209167,768.444031 751.547424,769.850830 751.427979,771.450378 
	C751.292053,773.270996 751.402893,775.109009 751.301270,776.933533 
	C751.204468,778.671875 751.700806,780.920776 748.925781,781.019714 
	C746.450134,781.108093 746.006958,779.288757 745.900940,777.318359 
	C745.865173,776.654480 745.867188,775.988647 745.852356,774.855591 
z"/>
<path fill="#000000" opacity="1.000000" stroke="none" 
	d="
M493.653015,773.934692 
	C493.652771,772.958923 493.654724,772.461975 493.658783,771.964966 
	C493.728271,763.432983 495.604584,761.786011 504.001251,762.946655 
	C506.328033,763.268250 508.166351,764.524963 508.779358,766.763062 
	C509.887512,770.808716 509.291870,774.987610 509.162354,779.109985 
	C509.119965,780.458984 508.077240,781.085266 506.745056,781.064392 
	C505.156616,781.039551 504.246033,780.104919 504.129242,778.623901 
	C503.934235,776.151184 503.954163,773.662231 503.828827,771.182922 
	C503.757751,769.776245 503.371094,768.402954 501.643982,768.428528 
	C500.019653,768.452576 499.413452,769.694031 499.344513,771.145630 
	C499.258118,772.964722 499.338074,774.792358 499.233032,776.609741 
	C499.122986,778.514465 499.587097,780.990356 496.615479,781.046936 
	C493.362152,781.108826 493.752502,778.524719 493.667664,776.401245 
	C493.641235,775.739502 493.658783,775.076050 493.653015,773.934692 
z"/>
<path fill="#000000" opacity="1.000000" stroke="none" 
	d="
M629.186035,776.839966 
	C629.077942,779.199951 628.901550,781.157776 626.285095,780.994324 
	C623.708313,780.833313 623.773193,778.786804 623.712585,776.932983 
	C623.663635,775.436707 623.648682,773.939087 623.630737,772.442017 
	C623.518188,763.037964 623.687561,762.850525 633.065063,762.888916 
	C635.627136,762.899414 637.753601,764.080200 638.583557,766.454529 
	C640.041382,770.624878 639.298462,775.005737 639.081848,779.299011 
	C639.010925,780.703796 637.781433,781.100647 636.492920,781.012817 
	C635.142578,780.920837 634.271484,780.118958 634.167725,778.835571 
	C633.980286,776.519287 634.030701,774.184875 633.901794,771.862427 
	C633.819946,770.387329 633.887939,768.558960 631.845642,768.445312 
	C629.540466,768.317017 629.333557,770.184021 629.250488,771.903809 
	C629.178284,773.398193 629.207031,774.897461 629.186035,776.839966 
z"/>
<path fill="#000000" opacity="1.000000" stroke="none" 
	d="
M810.249512,768.526855 
	C810.290955,771.953979 810.319214,774.937439 810.293945,777.920532 
	C810.280396,779.520447 809.940674,780.979797 807.906189,780.995972 
	C805.987671,781.011230 805.319153,779.643555 805.186279,778.066833 
	C804.991943,775.760132 805.050049,773.433350 804.914124,771.120178 
	C804.831909,769.722168 804.414124,768.356445 802.669556,768.420959 
	C801.078369,768.479675 800.368469,769.695312 800.273193,771.119751 
	C800.118469,773.431702 800.156860,775.755920 800.069580,778.073303 
	C800.005920,779.763794 799.314575,781.010620 797.412292,780.956299 
	C795.572571,780.903870 794.800659,779.720276 794.784058,777.999756 
	C794.745728,774.022156 794.696655,770.043396 794.764160,766.067078 
	C794.776733,765.324951 795.102478,764.327942 795.641907,763.897034 
	C799.224548,761.035461 808.165466,763.654480 810.249512,768.526855 
z"/>
<path fill="#000000" opacity="1.000000" stroke="none" 
	d="
M448.483032,764.106934 
	C450.422882,765.581970 452.289062,767.244995 450.848724,769.219910 
	C449.316986,771.320190 447.333221,769.934326 445.753113,768.508362 
	C444.525574,767.400513 443.289215,767.519775 442.367950,768.876099 
	C440.944183,770.972290 440.777832,773.248169 442.076385,775.440430 
	C442.922211,776.868347 444.229218,776.758362 445.536499,775.947205 
	C446.239319,775.511047 446.926819,775.013916 447.688751,774.717957 
	C448.797760,774.287231 450.073181,774.031067 450.911560,775.107178 
	C451.754456,776.189209 451.130920,777.274658 450.467987,778.299377 
	C447.586121,782.753662 441.147980,782.987183 437.648621,778.742371 
	C434.862000,775.362183 434.546875,770.228333 437.161621,766.660828 
	C440.003174,762.783813 443.750885,761.871643 448.483032,764.106934 
z"/>
<path fill="#000000" opacity="1.000000" stroke="none" 
	d="
M199.813507,771.499695 
	C200.645493,769.218201 201.337906,767.165283 202.158875,765.165100 
	C202.824402,763.543701 204.196274,762.913208 205.826309,763.395020 
	C207.963730,764.026733 207.345047,765.659119 206.827347,767.075989 
	C205.456360,770.828308 203.989151,774.545471 202.621643,778.299011 
	C201.995285,780.018250 201.065582,781.164612 199.050156,781.178345 
	C197.074310,781.191711 195.976181,780.187561 195.361481,778.438843 
	C194.037079,774.671326 192.684326,770.913635 191.384415,767.137695 
	C190.891678,765.706421 190.280319,764.103821 192.447052,763.490295 
	C194.295593,762.966919 195.761185,763.629639 196.503677,765.442871 
	C197.382553,767.589050 198.144409,769.783081 198.978882,771.947876 
	C199.018570,772.050964 199.288727,772.144775 199.417480,772.111389 
	C199.544098,772.078613 199.627258,771.878052 199.813507,771.499695 
z"/>
<path fill="#000000" opacity="1.000000" stroke="none" 
	d="
M821.975342,767.348999 
	C819.018555,770.463928 819.490906,773.677307 821.035156,776.766785 
	C821.813599,778.324158 823.073975,779.781860 821.094116,780.991943 
	C819.443848,782.000732 817.488525,781.620056 815.998901,780.314453 
	C814.406311,778.918640 813.943054,776.971313 813.873901,774.909607 
	C813.780518,772.128540 813.736450,769.509766 812.332092,766.776733 
	C810.781189,763.758301 814.044861,761.556580 815.425537,759.120178 
	C815.657532,758.710876 817.617065,758.683899 817.680115,758.864319 
	C818.737305,761.888000 823.539307,762.853088 821.975342,767.348999 
z"/>
<path fill="#000000" opacity="1.000000" stroke="none" 
	d="
M461.071075,776.081177 
	C462.665619,777.340454 464.182678,778.457336 462.990753,780.361450 
	C461.751251,782.341553 459.718536,781.689270 458.056763,781.029175 
	C455.344360,779.951782 454.873688,777.512512 454.768677,774.891296 
	C454.658936,772.152527 454.703613,769.603943 453.107361,766.872009 
	C451.379333,763.914551 454.419312,760.971802 456.428589,759.201599 
	C458.321075,757.534363 459.560822,759.753967 460.947418,761.778748 
	C462.807068,764.494446 465.603851,765.796021 460.994598,768.717041 
	C459.332367,769.770447 460.518158,773.375366 461.071075,776.081177 
z"/>
<path fill="#000000" opacity="1.000000" stroke="none" 
	d="
M773.157593,767.171021 
	C770.392517,770.339050 770.673096,773.588440 772.332947,776.591187 
	C773.207458,778.173279 775.283997,779.438354 772.852539,780.978394 
	C770.841492,782.252258 768.657715,781.663574 766.993713,779.884033 
	C765.630371,778.425964 765.699646,776.546875 765.646851,774.710449 
	C765.567566,771.953369 765.471863,769.490784 763.765076,766.786255 
	C761.937561,763.890320 765.308167,760.955200 767.257629,759.191895 
	C769.161621,757.469849 770.983337,759.552734 771.677917,762.031616 
	C772.142639,763.690002 775.408997,764.341003 773.157593,767.171021 
z"/>
<path fill="#000000" opacity="1.000000" stroke="none" 
	d="
M226.078735,763.886597 
	C227.536148,762.770142 227.355164,761.170166 228.114548,760.163574 
	C229.611221,758.179810 232.052689,757.971741 232.868118,760.177307 
	C233.678055,762.367981 235.512527,763.434326 236.786942,765.435181 
	C232.938095,769.369751 231.440384,773.459595 235.706985,778.163513 
	C236.961014,779.546021 235.885178,781.046936 234.012085,781.320496 
	C231.439163,781.696167 228.953506,780.881653 228.433884,778.286438 
	C227.494705,773.595764 227.639145,768.698547 226.078735,763.886597 
z"/>
<path fill="#000000" opacity="1.000000" stroke="none" 
	d="
M844.394287,763.764771 
	C846.851135,763.048157 849.019592,764.078430 851.158875,763.247253 
	C852.350342,762.784363 853.528870,763.156250 853.903931,764.588196 
	C854.212524,765.766235 854.181641,767.259827 853.031433,767.717041 
	C848.767578,769.412048 849.101318,772.958496 849.092346,776.483032 
	C849.086792,778.654846 849.215271,781.158936 845.972595,781.034424 
	C843.231018,780.929199 842.904907,778.737671 843.011963,776.691589 
	C843.234558,772.438538 841.921204,768.048340 844.394287,763.764771 
z"/>
<path fill="#000000" opacity="1.000000" stroke="none" 
	d="
M907.029968,777.707153 
	C906.813293,780.070190 905.899780,781.235901 903.807007,781.058655 
	C901.655396,780.876404 901.177673,779.278015 901.077698,777.544006 
	C900.963501,775.564270 901.000244,773.574707 901.007324,771.589478 
	C901.036377,763.440552 901.041809,763.463196 908.915710,763.284912 
	C910.139832,763.257141 911.281494,763.174316 911.824402,764.518555 
	C912.304199,765.706726 912.182495,767.178284 911.083618,767.619080 
	C906.349182,769.518127 907.154968,773.550110 907.029968,777.707153 
z"/>
<path fill="#000000" opacity="1.000000" stroke="none" 
	d="
M791.320190,770.972778 
	C791.291443,773.791626 791.299438,776.122253 791.213623,778.449463 
	C791.157288,779.977417 790.362000,780.945557 788.754700,781.035950 
	C786.914185,781.139526 785.871704,780.178528 785.850342,778.398682 
	C785.776611,772.242065 785.774109,766.084290 785.794373,759.927124 
	C785.799377,758.390564 786.614258,757.382202 788.231079,757.355103 
	C789.978210,757.325806 791.163696,758.229858 791.226379,760.000488 
	C791.349854,763.491394 791.296997,766.988586 791.320190,770.972778 
z"/>
<path fill="#000000" opacity="1.000000" stroke="none" 
	d="
M407.032654,780.982971 
	C402.674103,775.947205 404.124512,769.985291 405.252167,764.994629 
	C406.186859,760.857788 411.798981,765.982544 414.404236,762.488220 
	C415.799255,765.109253 415.933075,767.169556 413.958252,767.953918 
	C410.076141,769.495728 410.283417,772.509094 410.229797,775.724976 
	C410.194489,777.845886 411.105316,780.689941 407.032654,780.982971 
z"/>
<path fill="#000000" opacity="1.000000" stroke="none" 
	d="
M471.159088,774.861572 
	C471.069214,776.491333 471.072021,777.665100 470.897827,778.812012 
	C470.666504,780.334656 469.711121,781.111450 468.139160,781.121460 
	C466.358215,781.132751 465.135956,780.255615 465.087189,778.525391 
	C464.970154,774.371765 464.998138,770.209045 465.140533,766.055847 
	C465.195831,764.443298 466.090088,763.181091 467.965973,763.184143 
	C470.075195,763.187500 470.903442,764.530884 470.987823,766.406311 
	C471.107513,769.066162 471.116608,771.730957 471.159088,774.861572 
z"/>
<path fill="#000000" opacity="1.000000" stroke="none" 
	d="
M860.812622,765.721680 
	C860.918091,769.785583 861.007385,773.426758 860.924988,777.064087 
	C860.878052,779.137573 860.469604,781.196960 857.662292,781.042908 
	C855.202209,780.907898 854.867126,779.075684 854.865295,777.142944 
	C854.862061,773.668152 854.862549,770.191162 854.985046,766.719482 
	C855.038391,765.209351 855.402771,763.677368 857.251221,763.311096 
	C858.940613,762.976318 860.158691,763.600403 860.812622,765.721680 
z"/>
<path fill="#000000" opacity="1.000000" stroke="none" 
	d="
M243.567261,766.168579 
	C243.687698,770.005127 243.860367,773.458496 243.822449,776.909485 
	C243.800568,778.901550 243.636383,781.126282 240.759842,780.989197 
	C238.309418,780.872437 238.018723,778.975403 237.996613,777.077393 
	C237.956299,773.618164 237.964142,770.157471 238.015488,766.698425 
	C238.037735,765.199036 238.130936,763.577454 240.052353,763.239502 
	C242.002472,762.896606 243.212616,763.785889 243.567261,766.168579 
z"/>
<path fill="#000000" opacity="1.000000" stroke="none" 
	d="
M300.679413,774.700195 
	C299.122437,774.698486 297.958649,774.718079 296.817047,774.568481 
	C295.353882,774.376709 294.305664,773.640930 294.429718,771.978394 
	C294.556458,770.280151 295.780518,769.849670 297.220581,769.801086 
	C298.378418,769.762024 299.541870,769.734192 300.696777,769.802979 
	C302.213562,769.893188 303.828766,770.038635 304.010590,772.028625 
	C304.200226,774.103394 302.560944,774.330627 300.679413,774.700195 
z"/>
<path fill="#000000" opacity="1.000000" stroke="none" 
	d="
M141.991028,759.690552 
	C143.927002,757.166626 145.597534,754.711792 149.318604,756.607788 
	C148.809692,759.573486 146.776443,761.069092 144.227142,761.877686 
	C142.913620,762.294373 141.418976,762.152466 141.991028,759.690552 
z"/>
<path fill="#000000" opacity="1.000000" stroke="none" 
	d="
M855.087219,758.122009 
	C856.782959,755.381531 858.687012,755.361938 860.336853,757.505188 
	C861.366638,758.842957 860.952820,760.521240 859.322998,761.219666 
	C856.776794,762.310791 855.171143,761.427917 855.087219,758.122009 
z"/>
<path fill="#000000" opacity="1.000000" stroke="none" 
	d="
M831.737915,757.626953 
	C833.709167,755.737854 835.519165,755.244324 837.886292,756.872620 
	C836.356262,759.731323 834.614258,762.466980 831.308594,761.662292 
	C828.598450,761.002502 830.785339,759.182312 831.737915,757.626953 
z"/>
<path fill="#000000" opacity="1.000000" stroke="none" 
	d="
M615.286438,755.982544 
	C616.775879,755.908264 617.994934,755.641602 618.828125,757.249084 
	C617.188477,759.971497 615.432739,762.488159 611.228882,761.647705 
	C611.185730,758.637268 612.968384,757.299011 615.286438,755.982544 
z"/>
<path fill="#000000" opacity="1.000000" stroke="none" 
	d="
M470.904907,758.950623 
	C469.956024,762.030518 468.105377,762.511169 466.029175,760.828918 
	C464.794800,759.828674 464.764008,757.929749 466.086853,756.932068 
	C468.226501,755.318237 470.043518,755.850464 470.904907,758.950623 
z"/>
<path fill="#000000" opacity="1.000000" stroke="none" 
	d="
M242.230316,761.248535 
	C239.374802,762.100586 238.011566,761.105347 238.304199,758.513916 
	C238.530289,756.511963 240.164688,755.636841 241.891769,756.354675 
	C244.387833,757.392029 243.957657,759.274536 242.230316,761.248535 
z"/>
</svg>